<?xml version="1.0" encoding="UTF-8"?>
<svg id="Layer_1" data-name="Layer 1" xmlns="http://www.w3.org/2000/svg" viewBox="0 0 1457.8 448.94">
  <defs>
    <style>
      .cls-1 {
        fill: #fff;
      }
    </style>
  </defs>
  <g>
    <path class="cls-1" d="M1221.28,3.66c2.92-.66,7.88-.63,10.08,1.72l63.28,63.98c.58,3.29,1.09,7.35-1.54,9.9l-64.02,63.23c-4.91,2.12-7.96.45-11.76-2.63-20.65-16.72-39.27-42.31-59.84-59.84-3.09-3.42-4.04-9.33-.76-12.91l61.74-61.73c.81-.78,1.7-1.46,2.83-1.72Z"/>
    <path class="cls-1" d="M1224.33,304.38c3.24-.3,5.86,1.72,8.18,3.6,20.65,16.72,39.27,42.31,59.84,59.84,2.72,2.97,3.28,6.81,2.29,10.66l-65.56,65.48c-3.18,1.44-5.17,1.44-8.35,0l-64.03-63.22c-3.31-4.82-2.27-9.02,1.15-13.31,16.42-20.59,42.54-39.31,59.85-59.84,1.63-1.24,4.65-3.04,6.63-3.22Z"/>
    <path class="cls-1" d="M1072.86,153.63c2.79-.38,5.65.66,7.77,2.48l63.27,63.98c.74,3.29.7,7.18-1.52,9.92l-61.74,61.73c-4.96,3.3-9.62,2.4-14.06-1.15-20.59-16.43-39.31-42.53-59.84-59.84-3.64-4.04-3.64-9.63,0-13.67l60.98-60.98c1.3-1.16,3.46-2.25,5.15-2.48Z"/>
    <path class="cls-1" d="M1374.33,153.65c3.48-.5,5.12.42,7.78,2.47l63.11,64.15c1.2,3.87.58,7.48-2.13,10.5-20.6,17.77-39.14,42.79-59.84,59.84-4.99,4.11-9.5,4.46-14.81.38l-60.22-60.22c-3.28-3.58-3.71-9-.77-12.93l61.75-61.72c1.31-1.18,3.42-2.21,5.14-2.46Z"/>
    <path class="cls-1" d="M1083.43,299.09c17.86,1.17,39.18-2.17,56.64-.17,6.1.7,8.97,4.27,9.5,10.2,1.2,13.57,1.2,40.27,0,53.84-.49,5.55-2.94,9.29-8.72,10.21-17.79-1.29-37.83,1.66-55.34.01-5.63-.53-9.5-3.63-10.22-9.48-2.07-16.93,1.6-37.95,0-55.33.53-4.43,4.04-7.93,8.14-9.28Z"/>
    <path class="cls-1" d="M1371.26,301.42c1.83,1.66,3.07,5.97,3.29,8.45,1.54,17.11-1.23,36.47-.01,53.83-.91,5.46-4.51,9.38-10.22,9.48-17.39-1.42-37.52,1.8-54.57-.03-6.24-.67-8.96-4.11-9.5-10.2-1.16-13.08-1.35-41.69.03-54.57.67-6.24,4.11-8.96,10.2-9.5,17.38-1.54,36.97,1.23,54.59.01,1.5.19,5.16,1.59,6.19,2.52Z"/>
    <path class="cls-1" d="M1306.88,74.86l59.7-.18c5.18.61,7.55,5.45,7.97,10.21,1.19,13.39,1.18,39.69,0,53.09-.66,7.45-4.57,10.36-11.74,10.98-13.11,1.13-36.87,1.03-50.05,0-6.5-.51-11.19-2.43-12.49-9.48,1.6-17.65-2.07-38.88,0-56.09.44-3.67,3.16-7.22,6.62-8.53Z"/>
    <path class="cls-1" d="M1081.93,74.89l59.67-.2c4.94.85,7.51,4.64,7.97,9.46,1.25,13.29,1.25,41.31,0,54.6-.66,7-5.12,9.66-11.74,10.22-12.97,1.11-35.43.93-48.54,0-6.07-.43-11.6-1.05-13.46-7.75.55-17.75-2.51-39.64-.52-57.05.47-4.07,2.86-7.59,6.62-9.28Z"/>
    <path class="cls-1" d="M1065.96,140.86c6.04,7.77-.87,7.66-7.66,8.11-8.93.59-27,1.02-35.53-.07-6.41-.82-7.97-4.7-5.91-10.32,1.53-4.19,9.14-20.94,11.47-23.93,2.62-3.36,6.56-3.35,9.9-.97,4.15,2.95,24.47,22.98,27.74,27.18Z"/>
    <path class="cls-1" d="M1415.25,111.95c6.2-.82,11.43,12.82,13.7,17.77,6.99,15.25,9.22,18.47-10.08,19.25-8.91.36-21.67.74-30.36-.01-4.95-.43-9.23-1.51-5.31-6.88,3.06-4.18,24.28-25.46,28.4-28.4,1.12-.8,2.25-1.54,3.64-1.73Z"/>
    <path class="cls-1" d="M1384.9,299.08c13.53.87,29.84-1.73,43.03-.18,4.03.47,6.61,3.38,5.92,7.4-.47,2.73-10.94,24.87-12.72,26.74-3.14,3.32-6.83,2.92-10.28.36-9.55-7.08-18.84-20.68-28.35-28.47-2.18-2.44-.33-5.15,2.4-5.85Z"/>
    <path class="cls-1" d="M1020.55,299.07c13.56,1.03,30.69-1.92,43.82-.2,2.06.27,3.59,1.31,4.11,3.43-.07,1.47-1.05,2.38-1.87,3.44-3.96,5.18-22.51,23.84-27.65,27.65-4.22,3.13-8.16,2.68-11.25-1.66-1.61-2.26-10.51-21.16-11.11-23.72-1.05-4.44-.59-7.31,3.95-8.94Z"/>
    <path class="cls-1" d="M1302.31,380.82c2.31-.75,3.89.53,5.56,1.78,4.76,3.54,23.35,22.14,26.89,26.89,3.17,4.26,2.63,8.19-1.66,11.25-2.59,1.85-23.03,11.31-25.64,11.5-4.13.3-6.09-.95-7.14-4.98,1.06-13.39-1.57-29.32-.06-42.39.16-1.38.55-3.57,2.04-4.05Z"/>
    <path class="cls-1" d="M1148.6,380.92c.62,1.5.84,3.09.97,4.7.76,9.61,1.19,32.53-.08,41.64-.66,4.74-3.42,5.44-7.83,4.91-1.89-.23-23.6-10.35-25.4-11.72-4.62-3.53-3.63-7.58-.44-11.71,4.24-5.51,20.61-21.82,26.13-26.13,1.93-1.5,4.34-3.43,6.65-1.68Z"/>
    <path class="cls-1" d="M1334.87,28c1.92,2,2.29,4.75,1.43,7.36l-31.89,31.79c-3.07.47-3.83-1.49-4.14-4.17-1.07-9.35-.9-31.41-.03-40.96.44-4.77,2.66-7.95,7.81-6.99l26.82,12.97Z"/>
    <path class="cls-1" d="M1141.78,15.02c4.98-.94,7.23,1.57,7.76,6.27,1.01,8.92,1.04,32.78.01,41.67-.42,3.66-2.11,5.45-5.74,3.43-7.8-9.84-21.5-19.07-28.76-28.81-3.09-4.15-2.37-8.11,1.94-10.96,2.63-1.74,22.21-11.13,24.77-11.61Z"/>
  </g>
  <path class="cls-1" d="M886.9,30c.63-.13,1.7-.1,2.16.41l13.35,14.04c.11.71.2,1.59-.37,2.13l-14.05,13.34c-1.07.44-1.72.06-2.52-.62-4.38-3.69-8.28-9.28-12.63-13.14-.65-.75-.83-2.03-.11-2.78l13.55-13.03c.18-.16.37-.31.62-.36Z"/>
  <path class="cls-1" d="M852.83,30c.63-.13,1.7-.1,2.16.41l13.35,14.04c.11.71.2,1.59-.37,2.13l-14.05,13.34c-1.07.44-1.72.06-2.52-.62-4.38-3.69-8.28-9.28-12.63-13.14-.65-.75-.83-2.03-.11-2.78l13.55-13.03c.18-.16.37-.31.62-.36Z"/>
  <path class="cls-1" d="M717.66,29.44c.63-.13,1.7-.1,2.16.41l13.35,14.04c.11.71.2,1.59-.37,2.13l-14.05,13.34c-1.07.44-1.72.06-2.52-.62-4.38-3.69-8.28-9.28-12.63-13.14-.65-.75-.83-2.03-.11-2.78l13.55-13.03c.18-.16.37-.31.62-.36Z"/>
  <path class="cls-1" d="M614.49,29.44c.63-.13,1.7-.1,2.16.41l13.35,14.04c.11.71.2,1.59-.37,2.13l-14.05,13.34c-1.07.44-1.72.06-2.52-.62-4.38-3.69-8.28-9.28-12.63-13.14-.65-.75-.83-2.03-.11-2.78l13.55-13.03c.18-.16.37-.31.62-.36Z"/>
  <path class="cls-1" d="M582.65,28.67c.63-.13,1.7-.1,2.16.41l13.35,14.04c.11.71.2,1.59-.37,2.13l-14.05,13.34c-1.07.44-1.72.06-2.52-.62-4.38-3.69-8.28-9.28-12.63-13.14-.65-.75-.83-2.03-.11-2.78l13.55-13.03c.18-.16.37-.31.62-.36Z"/>
  <path class="cls-1" d="M401.86,178.96c.63-.13,1.7-.1,2.16.41l13.35,14.04c.11.71.2,1.59-.37,2.13l-14.05,13.34c-1.07.44-1.72.06-2.52-.62-4.38-3.69-8.28-9.28-12.63-13.14-.65-.75-.83-2.03-.11-2.78l13.55-13.03c.18-.16.37-.31.62-.36Z"/>
  <path class="cls-1" d="M869.18,4.1c.63-.13,1.7-.1,2.16.41l13.35,14.04c.11.71.2,1.59-.37,2.13l-14.05,13.34c-1.07.44-1.72.06-2.52-.62-4.38-3.69-8.28-9.28-12.63-13.14-.65-.75-.83-2.03-.11-2.78l13.55-13.03c.18-.16.37-.31.62-.36Z"/>
  <path class="cls-1" d="M790.45,179.2c.63-.13,1.7-.1,2.16.41l13.35,14.04c.11.71.2,1.59-.37,2.13l-14.05,13.34c-1.07.44-1.72.06-2.52-.62-4.38-3.69-8.28-9.28-12.63-13.14-.65-.75-.83-2.03-.11-2.78l13.55-13.03c.18-.16.37-.31.62-.36Z"/>
  <path class="cls-1" d="M759.09,178.96c.63-.13,1.7-.1,2.16.41l13.35,14.04c.11.71.2,1.59-.37,2.13l-14.05,13.34c-1.07.44-1.72.06-2.52-.62-4.38-3.69-8.28-9.28-12.63-13.14-.65-.75-.83-2.03-.11-2.78l13.55-13.03c.18-.16.37-.31.62-.36Z"/>
  <path class="cls-1" d="M300.56,142.64v23.67h-1.85c-12.76,0-24.78-1.85-33.28-7.4-7.21,4.81-16.27,7.4-26.63,7.4-14.79,0-32.17-7.03-39.75-11.09-7.58,7.21-18.3,11.09-30.88,11.09-8.69,0-18.67-1.48-31.43-5.92-8.69,27.36-31.25,39.01-61.94,39.01-39.57,0-65.45-19.23-65.45-66.75v-43.45h24.96v43.45c0,25.7,6.84,42.9,40.49,42.9s40.49-17.2,40.49-42.9v-59.91h25.15v64.53c7.03,2.77,17.57,5.18,25.52,5.18,20.34,0,20.15-13.13,20.15-18.67l.19-51.03h24.96v51.03c0,4.62-.55,9.06-1.66,12.94,7.03,2.96,18.67,5.73,27.18,5.73,20.15,0,20.15-13.13,20.15-18.67l.18-51.03h24.96v51.03c0,5.92-.74,11.09-2.4,15.9,3.33,2.4,9.8,2.96,19.04,2.96h1.85Z"/>
  <path class="cls-1" d="M368.78,142.64v23.67h-1.85c-11.09,0-21.63-1.48-29.95-5.55-7.21,3.7-16.46,5.55-27,5.55h-13.13v-23.67h11.09c24.59,0,24.41-12.39,24.41-18.12V39.1h25.15v85.42c0,6.66-1.11,12.39-2.96,17.38,3.33.55,7.4.74,12.39.74h1.85Z"/>
  <path class="cls-1" d="M405.95,72.75h25.15v51.77c0,27.37-17.93,41.79-47.52,41.79h-18.49v-23.67h16.46c24.59,0,24.41-12.39,24.41-18.12v-51.77Z"/>
  <path class="cls-1" d="M668.87,142.64v23.67h-1.85c-11.09,0-21.63-1.48-29.77-5.36-7.4,3.51-16.46,5.36-26.99,5.36h-65.64c-31.62,0-51.59-19.04-51.59-47.52s19.41-47.52,51.22-47.52c9.06,0,19.23,2.59,27.36,5.73v23.3c-7.03-2.77-17.2-5.18-25.15-5.18-27,0-28.29,17.01-28.29,23.67s1.29,23.85,28.29,23.85h61.76c24.59,0,24.41-12.39,24.41-18.12v-51.77h25.15v51.77c0,6.66-1.11,12.39-2.96,17.38,3.14.55,7.4.74,12.2.74h1.85Z"/>
  <path class="cls-1" d="M742.27,142.64v23.67h-1.85c-11.09,0-21.63-1.48-29.77-5.36-7.4,3.51-16.46,5.36-27,5.36h-18.49v-23.67h16.46c24.59,0,24.41-12.39,24.41-18.12v-51.77h25.15v51.77c0,6.66-1.11,12.39-2.96,17.38,3.14.55,7.4.74,12.2.74h1.85Z"/>
  <path class="cls-1" d="M815.67,142.64v23.67h-1.85c-11.09,0-21.63-1.48-29.77-5.36-7.4,3.51-16.46,5.36-27,5.36h-18.49v-23.67h16.46c24.59,0,24.41-12.39,24.41-18.12v-51.77h25.15v51.77c0,6.66-1.11,12.39-2.96,17.38,3.14.55,7.4.74,12.2.74h1.85Z"/>
  <path class="cls-1" d="M908.86,72.75v58.98c0,27.18-22.19,34.58-46.04,34.58h-50.85v-23.67h49.92c14.61,0,22-1.48,22-8.88v-4.44c-7.21,1.85-15.9,3.33-25.15,3.33-17.38,0-40.49-4.62-40.49-30.69s24.22-29.21,40.49-29.21h50.11ZM883.9,95.86h-23.11c-12.39,0-17.2.74-17.2,8.14s4.81,8.13,17.2,8.13c7.03,0,16.09-1.29,23.11-2.77v-13.5Z"/>
  <path class="cls-1" d="M952.67,166.31h-25.15V39.1h25.15v127.21Z"/>
  <g>
    <path class="cls-1" d="M109.88,302.07H34.62v25.65h52.04l-2.25,23.96h-49.8v31.26h77.5l-2.25,23.96H9.35v-128.79h102.77l-2.25,23.96Z"/>
    <path class="cls-1" d="M177.09,406.9h-29.58l-36.13-92.85,27.14-1.12,23.96,68.7,23.77-67.58,26.96-1.12-36.13,93.97Z"/>
    <path class="cls-1" d="M313.93,370.96l-70.2-.37c3.37,6.55,10.86,12.92,27.52,12.92,12.54,0,22.65-2.62,30.33-5.24l7.11,22.46c-9.55,4.31-23.03,6.93-37.81,6.93-32.2,0-55.22-19.28-55.22-48.11s21.34-48.11,53.54-48.11c23.96,0,45.49,15.54,45.49,44.74,0,7.3-.75,14.79-.75,14.79ZM242.8,349.99l46.24-.37c0-9.17-7.86-14.04-19.47-14.04-17.22,0-24.15,7.49-26.77,14.41Z"/>
    <path class="cls-1" d="M406.04,354.49c0-5.62.37-18.91-24.71-18.91-8.05,0-19.84,2.43-27.14,5.24v66.08h-25.46v-92.85l22.46-1.12.94,5.05c8.99-3.37,20.97-6.55,31.26-6.55,29.95,0,48.11,15.35,48.11,43.06v52.42h-25.27l-.19-52.42Z"/>
    <path class="cls-1" d="M517.05,336.89h-35.19v36.69c0,6.74,2.06,9.92,17.97,9.92,10.86,0,19.47-1.5,19.47-1.5l3.37,23.4s-11.61,2.25-24.15,2.25c-19.66,0-42.12-5.24-42.12-34.07v-36.69h-15.91l2.06-23.96h14.98l8.42-20.59,15.91-1.68v22.28h37.44l-2.25,23.96Z"/>
    <path class="cls-1" d="M606.16,445.65h-25.46v-131.6l22.46-1.12.94,5.05c8.42-3.37,19.47-6.55,29.58-6.55,32.2,0,51.85,19.28,51.85,48.11s-20.03,48.11-52.23,48.11c-9.55,0-19.09-2.25-27.14-5.24v43.24ZM660.07,359.54c0-6.74-1.12-23.96-28.45-23.96-8.05,0-18.35,2.43-25.46,5.24v38c6.55,2.43,15.16,4.68,25.46,4.68,27.33,0,28.45-17.22,28.45-23.96Z"/>
    <path class="cls-1" d="M724.85,406.9h-25.46v-128.79l25.46-1.31v130.1Z"/>
    <path class="cls-1" d="M771.65,364.6c0,5.8-.19,18.91,24.71,18.91,8.24,0,20.03-2.43,27.33-5.24v-66.08h25.27v94.72h-22.28l-1.12-5.8c-8.99,3.37-20.97,6.55-31.26,6.55-29.95,0-48.11-15.35-48.11-43.06v-52.42h25.46v52.42Z"/>
    <path class="cls-1" d="M908.87,311.43c14.04,0,27.52,3,36.32,5.43l-5.62,22.46c-7.3-1.87-20.59-4.12-29.76-4.12-14.79,0-21.34,1.12-21.34,5.24s6.18,5.05,19.09,6.18c18.72,1.87,45.12,4.12,45.12,29.02,0,23.21-18.16,32.01-47.92,32.01-14.98,0-31.45-2.81-40.62-5.05l5.62-22.46c5.99,1.5,22.46,3.74,35.01,3.74,24.9,0,22.46-4.12,22.46-6.93,0-3-8.61-4.31-24.34-5.99-20.22-1.87-39.87-8.24-39.87-28.45,0-24.15,21.72-31.08,45.86-31.08Z"/>
  </g>
</svg>
